<svg xmlns="http://www.w3.org/2000/svg" xmlns:xlink="http://www.w3.org/1999/xlink" version="1.1" x="0px" y="0px" viewBox="0 0 100 125" style="enable-background:new 0 0 100 100;" xml:space="preserve"><g><path d="M18.36,64.84v15.14c0,0.71,0.38,1.37,0.99,1.72c0.31,0.18,0.66,0.28,1.01,0.28c0.34,0,0.67-0.08,0.97-0.25   c0.36-0.2,8.56-4.8,13.54-9.9c2.42,0.43,4.88,0.64,7.33,0.64c19.22,0,35.46-13.09,35.46-28.59S61.42,15.28,42.2,15.28   S6.73,28.37,6.73,43.87C6.73,51.75,10.96,59.34,18.36,64.84z M42.2,19.28c17.05,0,31.46,11.26,31.46,24.59S59.25,68.46,42.2,68.46   c-2.56,0-5.13-0.26-7.64-0.77c-0.7-0.14-1.42,0.1-1.89,0.63c-2.78,3.11-7.33,6.23-10.31,8.12V63.81c0-0.65-0.32-1.27-0.85-1.64   c-6.84-4.78-10.77-11.45-10.77-18.3C10.73,30.54,25.14,19.28,42.2,19.28z"/><path d="M81.79,43.06c-0.99-0.49-2.19-0.09-2.68,0.9c-0.49,0.99-0.09,2.19,0.9,2.68c5.71,2.84,9.26,7.74,9.26,12.79   c0,4.19-2.42,8.28-6.65,11.23c-0.54,0.37-0.85,0.99-0.85,1.64v6.84c-1.79-1.19-3.98-2.8-5.42-4.41c-0.47-0.53-1.19-0.77-1.89-0.63   c-1.57,0.32-3.18,0.48-4.79,0.48c-4.46,0-8.69-1.19-12.24-3.45c-0.93-0.59-2.17-0.32-2.76,0.61c-0.59,0.93-0.32,2.17,0.61,2.76   c4.19,2.67,9.17,4.08,14.39,4.08c1.5,0,3-0.12,4.49-0.36c3.31,3.26,8.4,6.12,8.64,6.25c0.3,0.17,0.64,0.25,0.97,0.25   c0.35,0,0.7-0.09,1.01-0.28c0.61-0.36,0.99-1.02,0.99-1.72v-9.42c4.78-3.67,7.5-8.68,7.5-13.89   C93.27,52.85,88.87,46.58,81.79,43.06z"/><path d="M41.93,50.62c3.48,0,6.31-2.83,6.31-6.31s-2.83-6.31-6.31-6.31s-6.31,2.83-6.31,6.31S38.45,50.62,41.93,50.62z    M41.93,41.99c1.28,0,2.31,1.04,2.31,2.31s-1.04,2.31-2.31,2.31s-2.31-1.04-2.31-2.31S40.66,41.99,41.93,41.99z"/><path d="M27.14,50.62c3.48,0,6.31-2.83,6.31-6.31s-2.83-6.31-6.31-6.31s-6.31,2.83-6.31,6.31S23.66,50.62,27.14,50.62z    M27.14,41.99c1.28,0,2.31,1.04,2.31,2.31s-1.04,2.31-2.31,2.31s-2.31-1.04-2.31-2.31S25.86,41.99,27.14,41.99z"/><path d="M56.73,50.62c3.48,0,6.31-2.83,6.31-6.31s-2.83-6.31-6.31-6.31s-6.31,2.83-6.31,6.31S53.24,50.62,56.73,50.62z    M56.73,41.99c1.28,0,2.31,1.04,2.31,2.31s-1.04,2.31-2.31,2.31s-2.31-1.04-2.31-2.31S55.45,41.99,56.73,41.99z"/></g><text x="0" y="115" fill="#000000" font-size="5px" font-weight="bold" font-family="'Helvetica Neue', Helvetica, Arial-Unicode, Arial, Sans-serif">Created by Fharaz</text><text x="0" y="120" fill="#000000" font-size="5px" font-weight="bold" font-family="'Helvetica Neue', Helvetica, Arial-Unicode, Arial, Sans-serif">from the Noun Project</text></svg>